<svg xmlns="http://www.w3.org/2000/svg" width="100" height="100" viewBox="0 0 2000 2000" version="1.1"><path d="M 946 66.093 L 932.500 66.892 915 68.501 L 897.500 70.109 882 72.068 L 866.500 74.026 851 76.524 L 835.500 79.022 815.235 83.054 L 794.971 87.086 776.834 91.568 L 758.698 96.050 741.099 101.088 L 723.500 106.126 703 112.983 L 682.500 119.839 664.500 126.798 L 646.500 133.757 632.500 139.773 L 618.500 145.789 600.271 154.338 L 582.041 162.887 563.771 172.612 L 545.500 182.336 531 190.806 L 516.500 199.277 506 205.812 L 495.500 212.347 479.089 223.349 L 462.678 234.350 447.089 245.809 L 431.500 257.268 415 270.487 L 398.500 283.706 381.500 298.562 L 364.500 313.418 338.959 338.959 L 313.418 364.500 298.844 381.186 L 284.270 397.872 272.300 412.686 L 260.330 427.500 248.463 443.426 L 236.595 459.352 222.428 480.522 L 208.261 501.691 197.011 520.526 L 185.760 539.362 177.305 554.931 L 168.850 570.500 160.049 588.500 L 151.249 606.500 143.729 623.500 L 136.210 640.500 129.706 657 L 123.201 673.500 117.055 690.910 L 110.909 708.319 104.471 729.712 L 98.032 751.104 92.600 772.802 L 87.168 794.500 83.095 815 L 79.022 835.500 76.524 851 L 74.026 866.500 72.070 882 L 70.114 897.500 68.562 914.500 L 67.010 931.500 66.015 948.500 L 65.019 965.500 65.019 1000.500 L 65.019 1035.500 66.015 1052.500 L 67.010 1069.500 68.562 1086.500 L 70.114 1103.500 72.070 1119 L 74.026 1134.500 76.524 1150 L 79.022 1165.500 83.095 1186 L 87.168 1206.500 92.600 1228.198 L 98.032 1249.896 104.471 1271.288 L 110.909 1292.681 117.055 1310.090 L 123.201 1327.500 129.706 1344 L 136.210 1360.500 143.729 1377.500 L 151.249 1394.500 160.049 1412.500 L 168.850 1430.500 177.305 1446.069 L 185.760 1461.638 197.011 1480.474 L 208.261 1499.309 222.428 1520.478 L 236.595 1541.648 248.463 1557.574 L 260.330 1573.500 272.300 1588.314 L 284.270 1603.128 298.844 1619.814 L 313.418 1636.500 338.959 1662.041 L 364.500 1687.582 381.500 1702.438 L 398.500 1717.294 415 1730.513 L 431.500 1743.732 447.089 1755.191 L 462.678 1766.650 479.089 1777.651 L 495.500 1788.653 506 1795.188 L 516.500 1801.723 531.243 1810.347 L 545.986 1818.971 564.133 1828.598 L 582.279 1838.224 600.390 1846.717 L 618.500 1855.211 632.500 1861.227 L 646.500 1867.243 664.500 1874.202 L 682.500 1881.161 703 1888.017 L 723.500 1894.874 741.099 1899.912 L 758.698 1904.950 776.834 1909.432 L 794.971 1913.914 815.235 1917.946 L 835.500 1921.978 851 1924.476 L 866.500 1926.974 882 1928.930 L 897.500 1930.886 914.500 1932.438 L 931.500 1933.990 948.500 1934.985 L 965.500 1935.981 1000.500 1935.981 L 1035.500 1935.981 1052.500 1934.985 L 1069.500 1933.990 1086.500 1932.438 L 1103.500 1930.886 1119 1928.930 L 1134.500 1926.974 1150 1924.476 L 1165.500 1921.978 1185.765 1917.946 L 1206.029 1913.914 1224.166 1909.432 L 1242.302 1904.950 1259.901 1899.912 L 1277.500 1894.874 1298 1888.017 L 1318.500 1881.161 1336.500 1874.202 L 1354.500 1867.243 1368.500 1861.227 L 1382.500 1855.211 1400.610 1846.717 L 1418.721 1838.224 1436.867 1828.598 L 1455.014 1818.971 1469.757 1810.347 L 1484.500 1801.722 1496.500 1794.234 L 1508.500 1786.745 1525.391 1775.299 L 1542.281 1763.854 1557.891 1752.266 L 1573.500 1740.678 1588.314 1728.704 L 1603.128 1716.730 1619.814 1702.156 L 1636.500 1687.582 1662.041 1662.041 L 1687.582 1636.500 1702.156 1619.814 L 1716.730 1603.128 1728.700 1588.314 L 1740.670 1573.500 1752.212 1558 L 1763.755 1542.500 1777.254 1522.500 L 1790.753 1502.500 1802.789 1482.454 L 1814.826 1462.407 1823.488 1446.454 L 1832.150 1430.500 1841.439 1411.500 L 1850.729 1392.500 1857.750 1376.500 L 1864.771 1360.500 1871.280 1344 L 1877.788 1327.500 1883.958 1310 L 1890.129 1292.500 1896.564 1271.233 L 1903 1249.967 1903 1248.483 L 1903 1247 1730.578 1247 L 1558.157 1247 1554.892 1254.250 L 1551.627 1261.500 1544.217 1275.989 L 1536.807 1290.478 1530.222 1301.989 L 1523.636 1313.500 1514.957 1327.137 L 1506.277 1340.775 1498.161 1352.137 L 1490.044 1363.500 1481.493 1374.500 L 1472.941 1385.500 1462.720 1397.476 L 1452.500 1409.452 1436.712 1425.636 L 1420.923 1441.820 1409.212 1452.334 L 1397.500 1462.849 1389.500 1469.527 L 1381.500 1476.205 1365.844 1488.016 L 1350.188 1499.828 1335.844 1509.279 L 1321.500 1518.729 1311.500 1524.691 L 1301.500 1530.652 1286.500 1538.760 L 1271.500 1546.868 1256.391 1553.824 L 1241.282 1560.780 1226.038 1566.952 L 1210.795 1573.124 1191.648 1579.506 L 1172.500 1585.888 1153 1590.916 L 1133.500 1595.945 1118.500 1598.902 L 1103.500 1601.859 1089.500 1603.926 L 1075.500 1605.993 1060.896 1607.484 L 1046.292 1608.975 1022.871 1610.005 L 999.449 1611.034 976.349 1610.015 L 953.249 1608.997 937.875 1607.471 L 922.500 1605.946 906 1603.404 L 889.500 1600.862 877.500 1598.369 L 865.500 1595.876 847.500 1591.329 L 829.500 1586.782 812.500 1581.269 L 795.500 1575.756 780.500 1570.012 L 765.500 1564.269 752.500 1558.518 L 739.500 1552.767 723.670 1544.782 L 707.840 1536.796 548.808 1573.444 L 389.776 1610.092 389.038 1609.796 L 388.301 1609.500 425.069 1450.160 L 461.838 1290.821 452.512 1272.160 L 443.185 1253.500 437.212 1239.500 L 431.238 1225.500 426.233 1212 L 421.228 1198.500 417.525 1187 L 413.822 1175.500 409.384 1159.500 L 404.946 1143.500 400.496 1121.500 L 396.046 1099.500 393.542 1080.500 L 391.038 1061.500 390.001 1049.500 L 388.964 1037.500 388.354 1012 L 387.743 986.500 388.887 967 L 390.031 947.500 392.068 929.507 L 394.105 911.514 396.587 897.007 L 399.069 882.500 402.527 866.949 L 405.984 851.398 409.504 838.449 L 413.023 825.500 418.609 808.500 L 424.196 791.500 430.590 775.313 L 436.984 759.126 444.888 742.055 L 452.793 724.985 460.531 710.742 L 468.269 696.500 474.267 686.500 L 480.264 676.500 489.499 662.500 L 498.733 648.500 510.728 632.500 L 522.722 616.500 535.566 601.500 L 548.410 586.500 567.455 567.455 L 586.500 548.410 601.500 535.566 L 616.500 522.722 632.500 510.728 L 648.500 498.733 662.500 489.499 L 676.500 480.264 686.500 474.267 L 696.500 468.269 710.742 460.531 L 724.985 452.793 742.055 444.888 L 759.126 436.984 775.313 430.590 L 791.500 424.196 808.500 418.609 L 825.500 413.023 838.449 409.504 L 851.398 405.984 866.949 402.527 L 882.500 399.069 897.007 396.587 L 911.514 394.105 929.507 392.068 L 947.500 390.031 967 388.888 L 986.500 387.745 1012 388.344 L 1037.500 388.943 1049.500 389.996 L 1061.500 391.050 1074 392.574 L 1086.500 394.098 1103.823 397.078 L 1121.145 400.057 1136.323 403.540 L 1151.500 407.023 1166 411.143 L 1180.500 415.263 1195 420.182 L 1209.500 425.102 1227.500 432.270 L 1245.500 439.438 1270 451.611 L 1294.500 463.785 1311.500 474.016 L 1328.500 484.247 1341 492.744 L 1353.500 501.242 1366.500 511.006 L 1379.500 520.770 1392 531.267 L 1404.500 541.763 1418.216 554.632 L 1431.932 567.500 1443.604 580 L 1455.276 592.500 1465.459 604.500 L 1475.642 616.500 1482.654 625.500 L 1489.665 634.500 1498.226 646.500 L 1506.787 658.500 1515.018 671.467 L 1523.250 684.434 1531.809 699.467 L 1540.369 714.500 1549.725 733.750 L 1559.081 753 1731.040 753 L 1903 753 1903 752.106 L 1903 751.211 1896.566 729.856 L 1890.133 708.500 1883.960 691 L 1877.788 673.500 1871.289 657 L 1864.790 640.500 1857.271 623.500 L 1849.751 606.500 1840.951 588.500 L 1832.150 570.500 1823.695 554.931 L 1815.240 539.362 1803.989 520.526 L 1792.739 501.691 1778.572 480.522 L 1764.405 459.352 1752.537 443.426 L 1740.670 427.500 1728.700 412.686 L 1716.730 397.872 1702.156 381.186 L 1687.582 364.500 1662.041 338.959 L 1636.500 313.418 1619.814 298.844 L 1603.128 284.270 1588.314 272.296 L 1573.500 260.322 1557.891 248.734 L 1542.281 237.146 1525.391 225.701 L 1508.500 214.255 1496.500 206.766 L 1484.500 199.278 1470 190.807 L 1455.500 182.336 1437.229 172.612 L 1418.959 162.887 1400.729 154.338 L 1382.500 145.789 1368.500 139.773 L 1354.500 133.757 1336.500 126.798 L 1318.500 119.839 1298 112.983 L 1277.500 106.126 1259.901 101.088 L 1242.302 96.050 1224.166 91.568 L 1206.029 87.086 1185.765 83.054 L 1165.500 79.022 1150 76.524 L 1134.500 74.026 1119 72.070 L 1103.500 70.114 1086.500 68.562 L 1069.500 67.010 1052.500 66.015 L 1035.500 65.019 997.500 65.156 L 959.500 65.293 946 66.093 M 688 912.485 L 681.500 913.782 673.148 917.003 L 664.796 920.224 655.976 926.124 L 647.156 932.024 641.018 938.722 L 634.881 945.420 630.502 952.460 L 626.124 959.500 623.135 967 L 620.146 974.500 618.451 983.500 L 616.756 992.500 617.310 1003.500 L 617.863 1014.500 620.485 1023.451 L 623.108 1032.401 627.282 1040.425 L 631.456 1048.448 637.282 1055.690 L 643.108 1062.932 651.304 1069.130 L 659.500 1075.329 667.716 1079.197 L 675.932 1083.065 683.716 1085.188 L 691.500 1087.312 705.500 1087.312 L 719.500 1087.312 727.500 1085.140 L 735.500 1082.968 742.744 1079.536 L 749.988 1076.104 754.744 1072.860 L 759.500 1069.616 763.840 1066.058 L 768.180 1062.500 774.119 1055.155 L 780.057 1047.810 784.941 1037.655 L 789.825 1027.500 791.490 1021 L 793.155 1014.500 793.707 1002.942 L 794.259 991.383 792.551 982.957 L 790.844 974.531 787.865 966.807 L 784.887 959.083 779.918 951.471 L 774.949 943.859 770.224 938.801 L 765.500 933.743 759.930 929.452 L 754.360 925.160 747.864 921.589 L 741.369 918.019 735.434 915.944 L 729.500 913.869 722.162 912.435 L 714.824 911 704.662 911.094 L 694.500 911.188 688 912.485 M 982 912.426 L 976.500 913.647 971 915.462 L 965.500 917.278 959.500 920.272 L 953.500 923.266 949 926.326 L 944.500 929.385 938.136 935.443 L 931.772 941.500 927.504 947.500 L 923.236 953.500 920.258 959.500 L 917.280 965.500 915.192 972 L 913.104 978.500 911.918 984.771 L 910.732 991.042 911.279 1003.271 L 911.826 1015.500 913.960 1023 L 916.095 1030.500 920.034 1038.500 L 923.973 1046.500 929.306 1053.500 L 934.640 1060.500 942.070 1066.757 L 949.500 1073.014 959.500 1078.029 L 969.500 1083.045 977.500 1085.089 L 985.500 1087.134 995 1087.681 L 1004.500 1088.228 1013.808 1086.604 L 1023.116 1084.980 1030.808 1082.009 L 1038.500 1079.038 1045 1075.269 L 1051.500 1071.500 1061.500 1061.500 L 1071.500 1051.500 1075.269 1045 L 1079.038 1038.500 1082.009 1030.808 L 1084.980 1023.116 1086.604 1013.808 L 1088.228 1004.500 1087.681 995 L 1087.134 985.500 1085.077 977.500 L 1083.020 969.500 1078.589 960.500 L 1074.157 951.500 1069.171 944.916 L 1064.185 938.333 1059.342 934.022 L 1054.500 929.711 1047.209 924.912 L 1039.917 920.113 1032.209 917.145 L 1024.500 914.176 1016.792 912.588 L 1009.084 911 998.292 911.102 L 987.500 911.205 982 912.426 M 1274.500 912.643 L 1267.500 914.123 1259.681 917.481 L 1251.863 920.839 1246.344 924.169 L 1240.825 927.500 1235.662 931.871 L 1230.500 936.242 1225.666 941.871 L 1220.831 947.500 1216.532 954.781 L 1212.232 962.062 1209.195 971.281 L 1206.158 980.500 1205.029 990.103 L 1203.901 999.706 1204.922 1007.848 L 1205.943 1015.990 1207.546 1022.245 L 1209.150 1028.500 1213.423 1037.500 L 1217.696 1046.500 1222.361 1052.654 L 1227.025 1058.808 1233.017 1064.355 L 1239.009 1069.903 1247.011 1074.827 L 1255.013 1079.752 1264.256 1082.815 L 1273.500 1085.879 1280 1086.932 L 1286.500 1087.985 1293 1087.985 L 1299.500 1087.985 1306 1086.932 L 1312.500 1085.879 1321.744 1082.815 L 1330.987 1079.752 1339.096 1074.761 L 1347.205 1069.771 1354.149 1063.221 L 1361.092 1056.671 1366.483 1048.569 L 1371.873 1040.468 1374.925 1032.847 L 1377.976 1025.226 1379.406 1018.863 L 1380.835 1012.500 1381.485 1005.500 L 1382.136 998.500 1381.032 989.688 L 1379.928 980.877 1377.377 972.688 L 1374.825 964.500 1371.324 958 L 1367.822 951.500 1362.451 944.440 L 1357.079 937.380 1352.240 933.299 L 1347.401 929.219 1340.353 924.660 L 1333.305 920.101 1325.811 917.123 L 1318.316 914.146 1310.700 912.573 L 1303.084 911 1292.292 911.082 L 1281.500 911.163 1274.500 912.643" stroke="none" fill="#207c7c" fill-rule="evenodd"/></svg>